HIERARCHY
ROOT Hips
{
 OFFSET 0.000000 0.000000 0.000000
 CHANNELS 6 Xposition Yposition Zposition Yrotation Xrotation Zrotation
 JOINT Chest
 {
  OFFSET 0.000000 10.354800 0.006500
  CHANNELS 3 Yrotation Xrotation Zrotation
  JOINT Chest2
  {
   OFFSET 0.000000 10.435800 -0.013200
   CHANNELS 3 Yrotation Xrotation Zrotation
   JOINT Chest3
   {
    OFFSET 0.000000 10.393700 0.000000
    CHANNELS 3 Yrotation Xrotation Zrotation
    JOINT Chest4
    {
     OFFSET 0.000000 10.383100 0.000000
     CHANNELS 3 Yrotation Xrotation Zrotation
     JOINT Neck
     {
      OFFSET 0.000000 15.694000 0.000000
      CHANNELS 3 Yrotation Xrotation Zrotation
      JOINT Head
      {
       OFFSET 0.000000 9.711000 -0.028000
       CHANNELS 3 Yrotation Xrotation Zrotation
       End Site
       {
        OFFSET 0.000000 18.578700 -0.014800
       }
      }
     }
     JOINT RightCollar
     {
      OFFSET -3.157200 10.367500 0.000000
      CHANNELS 3 Yrotation Xrotation Zrotation
      JOINT RightShoulder
      {
       OFFSET -14.482500 0.000000 0.000000
       CHANNELS 3 Yrotation Xrotation Zrotation
       JOINT RightElbow
       {
        OFFSET 0.000000 -31.707800 0.000000
        CHANNELS 3 Yrotation Xrotation Zrotation
        JOINT RightWrist
        {
         OFFSET 0.000000 -25.659300 0.000000
         CHANNELS 3 Yrotation Xrotation Zrotation
         End Site
         {
          OFFSET 0.000000 -18.994300 0.000000
         }
        }
       }
      }
     }
     JOINT LeftCollar
     {
      OFFSET 3.157200 10.367500 0.000000
      CHANNELS 3 Yrotation Xrotation Zrotation
      JOINT LeftShoulder
      {
       OFFSET 14.482500 0.000000 0.000000
       CHANNELS 3 Yrotation Xrotation Zrotation
       JOINT LeftElbow
       {
        OFFSET 0.000000 -31.707800 0.000000
        CHANNELS 3 Yrotation Xrotation Zrotation
        JOINT LeftWrist
        {
         OFFSET 0.000000 -25.659300 0.000000
         CHANNELS 3 Yrotation Xrotation Zrotation
         End Site
         {
          OFFSET 0.000000 -18.994300 0.000000
         }
        }
       }
      }
     }
    }
   }
  }
 }
 JOINT RightHip
 {
  OFFSET -8.365600 -0.032100 -0.003200
  CHANNELS 3 Yrotation Xrotation Zrotation
  JOINT RightKnee
  {
   OFFSET 0.000000 -43.980000 0.003100
   CHANNELS 3 Yrotation Xrotation Zrotation
   JOINT RightAnkle
   {
    OFFSET 0.000000 -42.882800 0.005200
    CHANNELS 3 Yrotation Xrotation Zrotation
    JOINT RightToe
    {
     OFFSET 0.000000 -4.915500 10.826300
     CHANNELS 3 Yrotation Xrotation Zrotation
     End Site
     {
      OFFSET 0.000000 -1.517500 6.175900
     }
    }
   }
  }
 }
 JOINT LeftHip
 {
  OFFSET 8.365600 -0.032100 -0.003200
  CHANNELS 3 Yrotation Xrotation Zrotation
  JOINT LeftKnee
  {
   OFFSET 0.000000 -43.980000 0.003100
   CHANNELS 3 Yrotation Xrotation Zrotation
   JOINT LeftAnkle
   {
    OFFSET 0.000000 -42.882800 0.005200
    CHANNELS 3 Yrotation Xrotation Zrotation
    JOINT LeftToe
    {
     OFFSET 0.000000 -4.915500 10.826300
     CHANNELS 3 Yrotation Xrotation Zrotation
     End Site
     {
      OFFSET 0.000000 -1.517500 6.175900
     }
    }
   }
  }
 }
}
MOTION
Frames: 13
Frame Time: 0.008333
-10.190691 126.456517 21.190021 176.805811 -19.417410 -5.130078 -1.727206 13.577563 3.534331 -0.171351 1.169448 0.317080 -0.318270 1.962920 0.540590 -1.562751 12.217327 3.190971 -3.788783 19.757693 -0.466338 -3.915617 -4.730430 0.353749 2.847487 5.028214 -5.643258 6.905894 -3.418786 -4.352005 -82.431563 -53.162571 121.833651 -23.108316 -15.836223 -36.537647 -0.871000 8.103364 0.027542 12.051751 -1.495084 -2.964132 90.797441 -54.936225 -130.019818 26.241993 1.290864 36.967960 9.673676 -62.712327 1.842640 -110.413035 79.516572 -104.439898 2.477755 -13.353889 -13.395977 0.000824 -0.007188 0.000374 -22.534206 -62.079497 16.420871 92.207933 82.053829 86.818815 -10.107524 -8.679123 0.870978 -0.000669 0.000145 -0.000304
-10.192462 126.456006 21.189761 176.820218 -19.410508 -5.133575 -1.733996 13.575605 3.533740 -0.160487 1.174450 0.314341 -0.299713 1.971513 0.538126 -1.572646 12.208406 3.197946 -3.799140 19.752596 -0.461230 -3.900858 -4.727186 0.345253 2.845418 5.022244 -5.646800 6.908892 -3.422175 -4.340515 -82.437023 -53.159548 121.833669 -23.119598 -15.831515 -36.544649 -0.848161 8.110491 0.025051 12.066518 -1.500613 -2.952306 90.842186 -54.930814 -130.026655 26.235777 1.295304 36.988847 9.676412 -62.713316 1.831944 -110.457441 79.521970 -104.485349 2.463374 -13.376639 -13.398035 -0.000124 -0.007751 -0.000056 -22.540495 -62.089030 16.414308 92.215172 82.053999 86.824761 -10.119255 -8.677856 0.875164 -0.002005 -0.000300 -0.000910
-10.193464 126.455533 21.189794 176.831501 -19.403169 -5.140492 -1.710879 13.584068 3.537104 -0.174345 1.166849 0.317794 -0.298604 1.971751 0.538551 -1.565385 12.209310 3.200924 -3.795041 19.750214 -0.461106 -3.912342 -4.730705 0.355722 2.837252 5.014899 -5.643533 6.922580 -3.424549 -4.338514 -82.458700 -53.157615 121.833657 -23.138453 -15.814990 -36.539711 -0.847767 8.106752 0.028371 12.140452 -1.484449 -2.949616 90.873222 -54.918325 -130.043362 26.239632 1.308017 36.999542 9.680119 -62.716730 1.824867 -110.438095 79.515736 -104.462380 2.458720 -13.371340 -13.403246 0.000383 -0.008030 0.000174 -22.552229 -62.097056 16.420044 92.221318 82.055538 86.833825 -10.151407 -8.675968 0.879780 -0.002300 -0.000061 -0.001044
-10.194093 126.455373 21.189221 176.843516 -19.400505 -5.149349 -1.717157 13.584810 3.542259 -0.164977 1.170445 0.314515 -0.293839 1.974358 0.537538 -1.558512 12.212367 3.203057 -3.791391 19.748316 -0.455613 -3.922471 -4.736044 0.363085 2.836682 5.008317 -5.645915 6.931078 -3.430116 -4.333028 -82.458432 -53.149363 121.832915 -23.142684 -15.810284 -36.544210 -0.845403 8.100934 0.033062 12.137670 -1.486910 -2.945069 90.930681 -54.900476 -130.038429 26.239550 1.291349 37.029853 9.678060 -62.717992 1.824434 -110.407200 79.499410 -104.430212 2.458810 -13.346880 -13.405506 0.000047 -0.008047 0.000021 -22.559248 -62.100538 16.427014 92.246290 82.063865 86.856379 -10.164961 -8.676185 0.890228 -0.000582 -0.000174 -0.000264
-10.194521 126.454841 21.189969 176.849848 -19.391875 -5.157327 -1.703740 13.582309 3.546041 -0.178006 1.165761 0.319746 -0.280802 1.980362 0.534112 -1.554110 12.216382 3.203709 -3.769304 19.751400 -0.453829 -3.936710 -4.745447 0.379034 2.838211 5.004233 -5.644043 6.924210 -3.438665 -4.328884 -82.462343 -53.140468 121.838384 -23.152137 -15.789045 -36.542203 -0.846737 8.093507 0.039537 12.139180 -1.486301 -2.943424 90.991277 -54.881331 -130.040986 26.240910 1.267552 37.062915 9.678577 -62.727163 1.828265 -110.222320 79.452312 -104.257947 2.494227 -13.287277 -13.394357 -0.004078 -0.007302 -0.001851 -22.577540 -62.107359 16.441613 92.273076 82.061834 86.869573 -10.109826 -8.675832 0.897742 0.003293 0.001265 0.001495
-10.195910 126.454418 21.190233 176.854746 -19.386909 -5.158589 -1.692703 13.582237 3.544247 -0.177915 1.166762 0.319856 -0.278274 1.980814 0.536314 -1.555409 12.217498 3.204262 -3.773556 19.745775 -0.447946 -3.927953 -4.748782 0.382721 2.847189 5.003239 -5.645239 6.935530 -3.450445 -4.334926 -82.468557 -53.124197 121.830701 -23.155649 -15.783448 -36.543986 -0.855010 8.086688 0.045749 12.172822 -1.478067 -2.951692 91.036974 -54.866644 -130.055649 26.239399 1.241520 37.095782 9.681570 -62.731065 1.823828 -110.144878 79.433980 -104.191056 2.507712 -13.255220 -13.384868 -0.006570 -0.008147 -0.002983 -22.572050 -62.114785 16.438195 92.280392 82.067388 86.874999 -10.117396 -8.672818 0.899646 0.004572 0.001233 0.002076
-10.197503 126.454237 21.189852 176.859673 -19.386614 -5.157753 -1.677831 13.586380 3.543588 -0.177509 1.167267 0.319823 -0.285124 1.979653 0.538014 -1.550050 12.222694 3.203242 -3.779593 19.737481 -0.442402 -3.919706 -4.760937 0.381237 2.875191 5.010071 -5.660477 6.923898 -3.472893 -4.329783 -82.470517 -53.108390 121.815044 -23.152684 -15.793912 -36.547738 -0.846100 8.084646 0.048988 12.197378 -1.476861 -2.957844 91.073811 -54.854348 -130.079527 26.242898 1.259649 37.100782 9.704398 -62.728768 1.801026 -110.109392 79.426643 -104.158310 2.511910 -13.228443 -13.374505 -0.009318 -0.006560 -0.004230 -22.544054 -62.121375 16.410227 92.329966 82.070932 86.929342 -10.127519 -8.678179 0.907470 0.002010 0.000941 0.000913
-10.198894 126.454191 21.189290 176.881613 -19.386790 -5.163107 -1.671215 13.597421 3.544630 -0.188567 1.161585 0.321994 -0.296394 1.976068 0.539230 -1.535530 12.234675 3.200323 -3.778284 19.728462 -0.442044 -3.933651 -4.768675 0.393461 2.867316 4.998835 -5.658940 6.937613 -3.481152 -4.340055 -82.451205 -53.101399 121.805485 -23.160201 -15.802889 -36.548501 -0.840353 8.075499 0.051488 12.213029 -1.474314 -2.959590 91.120692 -54.845398 -130.106647 26.235410 1.218561 37.139255 9.753375 -62.727058 1.747946 -110.152849 79.425229 -104.184958 2.502955 -13.189027 -13.367593 -0.008318 -0.001912 -0.003776 -22.551890 -62.122617 16.399093 92.348244 82.065189 86.939684 -10.131459 -8.678277 0.917770 0.000076 0.001176 0.000035
-10.199468 126.454319 21.188629 176.890445 -19.389632 -5.168600 -1.669916 13.605381 3.547863 -0.185199 1.163626 0.321175 -0.295957 1.977276 0.539396 -1.531327 12.237878 3.200640 -3.785670 19.719591 -0.439187 -3.937413 -4.775264 0.396516 2.860039 4.989488 -5.658499 6.948963 -3.487101 -4.350671 -82.425618 -53.105155 121.810184 -23.169687 -15.794126 -36.538798 -0.825638 8.082515 0.041957 12.214105 -1.488509 -2.954701 91.175616 -54.846900 -130.134319 26.224651 1.184718 37.161629 9.771230 -62.724265 1.734502 -110.239485 79.432787 -104.266744 2.492031 -13.170931 -13.367344 -0.006983 0.002881 -0.003171 -22.555237 -62.121209 16.394309 92.364994 82.059646 86.953649 -10.119560 -8.677976 0.920139 0.002117 0.000362 0.000961
-10.199693 126.454451 21.188134 176.907392 -19.391417 -5.179251 -1.681629 13.610214 3.553201 -0.165720 1.172324 0.318548 -0.285459 1.981148 0.537580 -1.546735 12.231251 3.205572 -3.794342 19.712306 -0.437216 -3.943335 -4.782227 0.401133 2.879072 4.997758 -5.675075 6.930931 -3.505631 -4.342010 -82.435971 -53.094727 121.808713 -23.170599 -15.787364 -36.532790 -0.825660 8.082668 0.040616 12.233118 -1.488496 -2.956338 91.191920 -54.852367 -130.157139 26.203300 1.154394 37.169067 9.779959 -62.720615 1.724537 -110.351877 79.443233 -104.368319 2.478255 -13.178962 -13.370702 -0.003645 0.006022 -0.001655 -22.559230 -62.121839 16.384845 92.379361 82.057382 86.973805 -10.101164 -8.676378 0.915577 0.006125 0.000542 0.002781
-10.201789 126.454133 21.188446 176.927207 -19.387622 -5.181629 -1.677990 13.612074 3.551126 -0.176859 1.169852 0.320351 -0.278381 1.981835 0.533966 -1.557407 12.229970 3.211119 -3.797699 19.707824 -0.439934 -3.958867 -4.787635 0.409600 2.889373 4.999311 -5.686420 6.931591 -3.512391 -4.339387 -82.431399 -53.099908 121.810173 -23.173796 -15.798970 -36.534875 -0.818850 8.087683 0.034985 12.245714 -1.484901 -2.958771 91.218688 -54.860448 -130.185692 26.181890 1.136206 37.164601 9.791277 -62.718322 1.702945 -110.435732 79.453895 -104.445136 2.466340 -13.235825 -13.388008 -0.001380 0.001889 -0.000627 -22.555330 -62.129566 16.362386 92.364465 82.050675 86.961988 -10.133221 -8.672175 0.922491 0.002492 0.000504 0.001132
-10.202696 126.454146 21.188180 176.948438 -19.387854 -5.191957 -1.678630 13.614280 3.554145 -0.162793 1.172936 0.311500 -0.294736 1.980960 0.539914 -1.551663 12.230861 3.215174 -3.813832 19.700399 -0.436901 -3.970707 -4.796091 0.419065 2.879684 4.994731 -5.688008 6.942022 -3.517989 -4.340322 -82.428308 -53.119243 121.820404 -23.179020 -15.807040 -36.530773 -0.826353 8.088373 0.037577 12.265196 -1.484449 -2.964174 91.330450 -54.869116 -130.230840 26.199768 1.190379 37.122831 9.779600 -62.715694 1.705821 -110.465582 79.451880 -104.469736 2.459363 -13.269963 -13.395751 0.001798 -0.002085 0.000816 -22.555684 -62.130125 16.348983 92.371980 82.042919 86.966425 -10.150514 -8.671771 0.936231 -0.002721 0.001832 -0.001236
-10.202774 126.454228 21.187882 176.967258 -19.388849 -5.207037 -1.664821 13.620965 3.551360 -0.183667 1.169079 0.325633 -0.294546 1.981358 0.539820 -1.541148 12.235997 3.210854 -3.826009 19.692010 -0.426609 -3.985129 -4.808977 0.427852 2.866658 4.986059 -5.679059 6.960482 -3.523622 -4.351453 -82.437072 -53.115480 121.817855 -23.149132 -15.764333 -36.489871 -0.836761 8.082663 0.048629 12.297624 -1.475654 -2.976353 91.384688 -54.875792 -130.267794 26.205712 1.222307 37.097159 9.758200 -62.715906 1.720326 -110.595137 79.474331 -104.593119 2.424641 -13.297680 -13.397697 0.004232 -0.002479 0.001921 -22.539891 -62.133608 16.329370 92.375812 82.047307 86.989877 -10.153707 -8.671741 0.935309 0.001834 0.001846 0.000833
